# xmcd
#
# Track frame offsets:
#  150
#  10918
#  40759
#  54258
#  85652
#  126761
#  146083
#  164701
#  189870
#  234780
#  246171
#  253451
#  272618
#  284249
#  291065
#  319145
#
# Disc length: 4627 seconds
#
# Revision: 0
# Processed by: cddbd v1.5.1PL2 Copyright (c) Steve Scherf et al.
# Submitted via: Collectorz.com_Music_Collector 6.11
#
DISCID=e8121110
DTITLE=Bach, Johann Sebastian - Albert Schweitzer n. 1
DYEAR=1900
DGENRE=
TTITLE0=Toccata e Fuga in re minore BWV 565: 1. Toccata
TTITLE1=Toccata e Fuga in re minore BWV 565: 2. Fuga
TTITLE2=Preludio Corale, BWV 731
TTITLE3=Preludio e Fuga in mi minore, BWV 548: 1. Preludio
TTITLE4=Preludio e Fuga in mi minore, BWV 548: 2. Fuga
TTITLE5=Preludio Corale, BWV 665
TTITLE6=Preludio e Fuga in sol maggiore BWV 541: 1. Preludio
TTITLE7=Preludio e Fuga in sol maggiore BWV 541: 2. Fuga
TTITLE8=dai Corali di Lipsia: O Lamm Gottes unshuldig, BWV 656
TTITLE9=BWV 620
TTITLE10=BWV 621
TTITLE11=BWV 622
TTITLE12=BWV 625
TTITLE13=BWV 629
TTITLE14=Preludio e Fuga in do maggiore BWV 547: 1. Preludio
TTITLE15=Preludio e Fuga in do maggiore BWV 547: 2. Fuga
EXTD=
EXTT0=
EXTT1=
EXTT2=
EXTT3=
EXTT4=
EXTT5=
EXTT6=
EXTT7=
EXTT8=
EXTT9=
EXTT10=
EXTT11=
EXTT12=
EXTT13=
EXTT14=
EXTT15=
PLAYORDER=
